<?xml version="1.0" standalone="no"?>
<!DOCTYPE svg PUBLIC "-//W3C//DTD SVG 20010904//EN"
 "http://www.w3.org/TR/2001/REC-SVG-20010904/DTD/svg10.dtd">
<svg version="1.0" xmlns="http://www.w3.org/2000/svg"
 width="300.000000pt" height="300.000000pt" viewBox="0 0 300.000000 300.000000"
 preserveAspectRatio="xMidYMid meet">
<metadata>
Created by potrace 1.11, written by Peter Selinger 2001-2013
</metadata>
<g transform="translate(0.000000,300.000000) scale(0.100000,-0.100000)"
fill="#000000" stroke="none">
<path d="M92 2783 c-30 -19 -51 -45 -69 -80 -25 -53 -27 -89 -7 -188 2 -11 6
-37 9 -57 3 -21 9 -68 15 -105 16 -110 19 -159 26 -338 3 -93 10 -186 15 -207
17 -65 68 -129 136 -165 50 -28 63 -40 69 -66 10 -47 59 -133 124 -219 l59
-77 -5 -143 c-2 -79 -6 -156 -8 -173 -14 -120 -17 -145 -21 -166 -6 -31 -26
-137 -32 -169 -12 -70 -40 -154 -53 -161 -8 -4 -31 -15 -50 -24 -74 -32 -127
-104 -144 -193 -4 -25 -1 -37 15 -53 17 -17 28 -19 97 -14 42 3 102 7 132 10
30 2 62 6 70 10 46 17 254 412 330 627 l14 37 42 -31 c41 -29 42 -32 46 -92 3
-52 -1 -67 -24 -106 -30 -49 -78 -178 -78 -210 0 -17 -7 -20 -40 -20 -59 0
-100 -21 -148 -75 -50 -57 -72 -116 -51 -141 11 -14 32 -15 168 -10 150 6 283
9 1061 21 195 3 371 10 392 15 74 20 128 109 113 183 -17 79 -81 149 -149 161
-16 3 -30 7 -32 9 -2 2 18 58 46 125 99 244 207 627 244 862 6 42 25 171 32
219 2 19 7 37 10 40 4 5 77 22 154 37 35 6 140 59 173 86 15 13 44 36 65 53
102 80 163 218 158 356 -4 105 -1 104 -219 104 -100 1 -189 4 -198 8 -8 4 -22
20 -31 35 -9 15 -36 48 -60 73 -199 211 -539 231 -813 48 -190 -127 -296 -323
-283 -522 7 -112 51 -181 153 -242 15 -9 14 -17 -15 -95 -17 -47 -34 -88 -38
-92 -4 -3 -36 21 -72 54 -36 34 -103 86 -150 116 -47 31 -86 56 -88 57 -1 1
18 44 42 96 58 125 128 319 165 459 37 141 39 163 22 184 -19 23 -43 20 -163
-20 l-107 -35 -67 40 c-108 65 -167 85 -259 85 -89 1 -120 -11 -173 -66 -63
-64 -75 -188 -28 -280 l25 -47 -46 -63 c-26 -35 -51 -68 -57 -74 -6 -6 -31
-35 -55 -64 -49 -57 -52 -56 -65 21 -3 19 -8 46 -11 62 -11 64 -25 145 -30
182 -4 22 -8 48 -11 57 -3 10 -7 28 -9 40 -2 13 -11 66 -20 118 -19 108 -45
164 -94 197 -46 31 -96 30 -149 -4z m114 -98 c9 -14 25 -71 35 -128 11 -56 39
-215 64 -353 l45 -251 -35 -64 c-19 -35 -37 -85 -41 -111 -7 -53 -10 -55 -42
-32 -47 33 -59 78 -66 249 -4 88 -9 180 -11 205 -5 55 -25 226 -30 249 -31
164 -30 207 7 241 29 27 54 25 74 -5z m1979 -49 c127 -31 223 -100 291 -207
39 -62 90 -74 297 -72 l127 1 0 -37 c0 -103 -72 -227 -160 -275 -43 -24 -61
-28 -105 -24 -62 5 -132 50 -180 115 -16 23 -40 46 -53 52 -19 9 -27 7 -48
-14 -21 -21 -23 -28 -13 -47 24 -46 92 -118 140 -149 27 -18 49 -33 49 -35 0
-1 -35 -10 -79 -19 -43 -10 -83 -20 -89 -24 -10 -6 -17 -37 -27 -131 -36 -335
-170 -833 -299 -1115 -29 -62 -36 -71 -62 -72 -16 -1 -53 -5 -82 -8 -51 -6
-53 -6 -48 17 6 34 37 109 97 232 54 114 66 171 38 189 -29 18 -64 1 -78 -39
-7 -21 -39 -92 -71 -158 -68 -141 -88 -206 -84 -261 6 -65 30 -80 121 -77 158
6 189 5 236 -5 56 -12 83 -34 92 -74 8 -37 -1 -66 -27 -80 -13 -7 -98 -13
-217 -14 -108 -2 -378 -6 -601 -10 l-406 -6 -24 26 c-18 20 -24 36 -23 73 0
61 37 165 78 222 67 94 335 499 387 585 119 198 200 363 263 540 l32 90 56 7
c124 16 224 91 266 201 28 73 22 210 -14 332 -30 103 -51 131 -88 121 -38 -9
-41 -36 -13 -128 56 -185 52 -277 -18 -356 -103 -118 -307 -90 -351 48 -22 68
8 226 61 316 63 110 251 238 394 268 60 13 187 14 235 2z m-1272 -46 c29 -11
80 -36 113 -56 110 -68 96 -65 192 -33 47 16 87 27 89 25 6 -6 -68 -239 -113
-354 -24 -62 -78 -180 -119 -262 -41 -83 -75 -156 -75 -164 0 -21 38 -45 61
-39 11 3 33 28 48 54 l28 49 64 -41 c68 -43 162 -121 216 -178 l32 -34 -50
-96 c-94 -184 -119 -221 -147 -217 -30 5 -136 -24 -178 -49 -73 -43 -130 -125
-149 -215 -12 -57 -17 -61 -47 -37 l-27 22 53 135 c29 74 67 168 84 209 18 40
32 81 32 90 0 25 -20 41 -51 41 -37 0 -29 19 -259 -570 -29 -74 -75 -184 -103
-244 -56 -124 -173 -325 -190 -331 -28 -9 -138 -12 -143 -4 -10 16 57 69 102
80 23 6 49 18 58 28 14 16 59 171 70 245 4 21 8 41 10 45 2 3 7 26 10 51 3 25
8 59 11 75 3 17 7 44 10 60 10 64 19 236 18 365 0 281 -7 310 -73 300 -21 -3
-22 -5 -29 -47 l-6 -38 -29 49 c-46 79 -65 144 -62 213 4 80 37 144 133 259
122 147 192 233 201 251 9 15 13 15 58 -2 52 -20 165 -28 211 -16 16 4 35 19
43 34 13 24 13 28 -2 43 -13 13 -37 17 -110 18 -78 1 -99 5 -130 24 -104 65
-117 216 -23 270 31 18 109 14 168 -8z m261 -1462 c-18 -30 -166 -248 -169
-248 -7 0 26 123 39 148 17 33 61 74 101 95 37 20 38 20 29 5z m-384 -808 c11
-6 24 -19 30 -30 10 -19 7 -20 -75 -20 -83 0 -85 0 -66 19 40 40 76 50 111 31z"/>
</g>
</svg>
